<svg width="150" height="150" viewBox="0 0 150 150" fill="none" xmlns="http://www.w3.org/2000/svg">
<g clip-path="url(#clip0_18_27)">
<path d="M86.6249 -1.40741e-05C86.5663 0.0234234 86.496 0.0585798 86.4374 0.0937359L2.4374 16.0312C1.00772 16.3008 -0.0235343 17.5664 -9.67519e-05 19.0312V130.969C-0.0235343 132.434 1.00772 133.699 2.4374 133.969L86.4374 149.906C87.3046 150.07 88.2069 149.848 88.8983 149.285C89.578 148.723 89.9882 147.891 89.9999 147V132H141C144.281 132 147 129.281 147 126V24C147 20.7187 144.281 18 141 18H89.9999V2.99999C90.0116 2.1328 89.6366 1.31249 88.9921 0.738268C88.3476 0.164048 87.4804 -0.105483 86.6249 -1.40741e-05ZM83.9999 6.56249V19.5937C83.6015 20.4258 83.6015 21.3867 83.9999 22.2187V128.437C83.9179 128.836 83.9179 129.258 83.9999 129.656V143.437L5.9999 128.531V21.4687L83.9999 6.56249ZM89.9999 24H141V126H89.9999V111H102V105H89.9999V87H102V81H89.9999V66H102V60H89.9999V45H102V39H89.9999V24ZM108 39V45H132V39H108ZM20.0624 47.0625L36.4687 75.0937L18.5624 103.125H33.5624L43.3124 85.0312C43.9921 83.2851 44.4374 81.9492 44.6249 81.0937H44.7187C45.1054 82.9219 45.4804 84.164 45.8437 84.8437L55.5937 103.125H70.4999L53.2499 74.8125L70.0312 47.0625H55.9687L47.0624 63.6562C46.2069 65.8242 45.5976 67.5351 45.2812 68.625H45.1874C44.6952 66.7969 44.1327 65.168 43.4999 63.8437L35.4374 47.0625H20.0624ZM108 60V66H132V60H108ZM108 81V87H132V81H108ZM108 105V111H132V105H108Z" fill="black"/>
</g>
<defs>
<clipPath id="clip0_18_27">
<rect width="150" height="150" fill="white"/>
</clipPath>
</defs>
</svg>
