<svg width="150" height="150" viewBox="0 0 150 150" fill="none" xmlns="http://www.w3.org/2000/svg">
<path d="M91.2541 18H55.7461C53.5741 18 51.5701 19.173 50.5111 21.069L10.2691 92.964C9.19208 94.89 9.25808 97.251 10.4401 99.114L29.5801 129.219C30.6841 130.95 32.5921 132 34.6441 132H112.353C114.405 132 116.316 130.95 117.417 129.219L136.557 99.114C137.742 97.251 137.808 94.89 136.728 92.964L96.4891 21.069C95.4271 19.173 93.4261 18 91.2541 18ZM91.2301 24L129.9 93H97.8301L61.9501 24H91.2301ZM91.0501 93H55.4101L73.3501 58.98L91.0501 93ZM15.4801 95.91L55.4701 24.57L69.9901 52.5L32.7601 123.03L15.4801 95.91ZM112.35 126H37.9801L52.2301 99H129.54L112.35 126Z" fill="black"/>
</svg>
