<svg width="150" height="150" viewBox="0 0 150 150" fill="none" xmlns="http://www.w3.org/2000/svg">
<path d="M75 7.03125C37.4897 7.03125 7.03125 37.4897 7.03125 75C7.03125 112.51 37.4897 142.969 75 142.969C112.51 142.969 142.969 112.51 142.969 75C142.969 37.4897 112.51 7.03125 75 7.03125ZM75 11.7188C109.977 11.7188 138.281 40.023 138.281 75C138.281 109.977 109.977 138.281 75 138.281C40.023 138.281 11.7188 109.977 11.7188 75C11.7188 40.023 40.023 11.7188 75 11.7188ZM68.0649 19.2169C67.9317 19.2132 67.7985 19.2209 67.6666 19.2398C66.0024 19.4561 64.3727 19.7541 62.7731 20.1096C62.463 20.1663 62.1675 20.2849 61.9043 20.4585C61.6411 20.6321 61.4156 20.857 61.2413 21.1197C61.0671 21.3825 60.9476 21.6776 60.8901 21.9876C60.8325 22.2976 60.8381 22.616 60.9065 22.9238C60.9749 23.2316 61.1047 23.5224 61.2881 23.7788C61.4715 24.0353 61.7048 24.2521 61.9739 24.4163C62.243 24.5805 62.5425 24.6887 62.8545 24.7345C63.1664 24.7802 63.4844 24.7626 63.7894 24.6826C65.2695 24.3537 66.7616 24.0869 68.2709 23.8907C68.863 23.8263 69.4084 23.539 69.7963 23.087C70.1842 22.635 70.3855 22.0523 70.3593 21.4572C70.3331 20.8622 70.0813 20.2994 69.6551 19.8833C69.229 19.4672 68.6604 19.2289 68.0649 19.2169ZM53.8239 23.1445C53.5349 23.1579 53.2508 23.2246 52.9861 23.3414C43.0447 27.5835 34.5644 34.5687 28.5324 43.3868C28.1815 43.9004 28.0491 44.5323 28.1641 45.1435C28.2791 45.7548 28.6323 46.2953 29.1458 46.6461C29.6594 46.997 30.2913 47.1295 30.9025 47.0144C31.5137 46.8994 32.0542 46.5463 32.4051 46.0327C37.9324 37.9524 45.7085 31.5442 54.8264 27.6535C55.337 27.4433 55.7571 27.0596 56.0125 26.57C56.2679 26.0803 56.3422 25.5163 56.2224 24.9772C56.1025 24.4381 55.7962 23.9587 55.3574 23.6234C54.9186 23.2881 54.3755 23.1185 53.8239 23.1445ZM79.6875 28.125C79.0659 28.1251 78.4698 28.372 78.0303 28.8115C77.5908 29.2511 77.3438 29.8472 77.3438 30.4688V100.781C77.3438 101.403 77.5908 101.999 78.0303 102.438C78.4698 102.878 79.0659 103.125 79.6875 103.125H98.4375C113.924 103.125 126.562 90.4862 126.562 75C126.562 59.5138 113.924 46.875 98.4375 46.875C97.8159 46.8751 97.2198 47.122 96.7803 47.5615C96.3408 48.0011 96.0938 48.5972 96.0938 49.2188V58.5938C96.0938 59.2153 96.3408 59.8114 96.7803 60.251C97.2198 60.6905 97.8159 60.9374 98.4375 60.9375C106.213 60.9375 112.5 67.2242 112.5 75C112.5 82.7758 106.213 89.0625 98.4375 89.0625H91.4062V39.8438C91.4062 33.3996 86.1317 28.125 79.6875 28.125ZM82.0312 33.7784C84.6386 34.8028 86.7188 36.8535 86.7188 39.8438V91.4062C86.7188 92.0278 86.9658 92.6239 87.4053 93.0635C87.8448 93.503 88.4409 93.7499 89.0625 93.75H98.4375C108.755 93.75 117.188 85.3179 117.188 75C117.188 65.5122 109.951 57.9347 100.781 56.7261V52.034C112.568 53.2642 121.875 62.8877 121.875 75C121.875 87.9435 111.381 98.4375 98.4375 98.4375H82.0312V33.7784ZM51.5625 46.875C36.0763 46.875 23.4375 59.5138 23.4375 75C23.4375 90.4862 36.0763 103.125 51.5625 103.125C52.1841 103.125 52.7802 102.878 53.2197 102.438C53.6592 101.999 53.9062 101.403 53.9062 100.781V91.4062C53.9062 90.7847 53.6592 90.1886 53.2197 89.749C52.7802 89.3095 52.1841 89.0626 51.5625 89.0625C43.7867 89.0625 37.5 82.7758 37.5 75C37.5 67.2242 43.7867 60.9375 51.5625 60.9375H58.5938V110.156C58.5938 116.6 63.8683 121.875 70.3125 121.875C70.9341 121.875 71.5302 121.628 71.9697 121.188C72.4092 120.749 72.6562 120.153 72.6562 119.531V49.2188C72.6562 48.5972 72.4092 48.0011 71.9697 47.5615C71.5302 47.122 70.9341 46.8751 70.3125 46.875H51.5625ZM51.5625 51.5625H67.9688V116.222C65.3614 115.197 63.2812 113.147 63.2812 110.156V58.5938C63.2812 57.9722 63.0342 57.3761 62.5947 56.9365C62.1552 56.497 61.5591 56.2501 60.9375 56.25H51.5625C41.2446 56.25 32.8125 64.6821 32.8125 75C32.8125 84.4878 40.0489 92.0653 49.2188 93.2739V97.966C37.4319 96.7358 28.125 87.1123 28.125 75C28.125 62.0565 38.619 51.5625 51.5625 51.5625ZM111.433 105.78C110.968 105.781 110.513 105.921 110.127 106.182C109.74 106.442 109.441 106.812 109.266 107.244C109.091 107.676 109.049 108.15 109.145 108.606C109.24 109.062 109.47 109.479 109.804 109.804L113.118 113.118C113.334 113.343 113.593 113.522 113.879 113.646C114.165 113.77 114.473 113.835 114.785 113.838C115.097 113.842 115.406 113.783 115.695 113.665C115.983 113.547 116.246 113.373 116.466 113.152C116.687 112.932 116.861 112.669 116.979 112.381C117.097 112.092 117.156 111.783 117.153 111.471C117.149 111.159 117.084 110.851 116.96 110.565C116.837 110.278 116.657 110.02 116.432 109.804L113.118 106.49C112.899 106.264 112.637 106.086 112.348 105.964C112.058 105.842 111.747 105.779 111.433 105.78ZM102.209 113.612C101.804 113.636 101.411 113.764 101.07 113.985C100.729 114.205 100.451 114.511 100.263 114.871C100.076 115.232 99.9856 115.635 100.001 116.041C100.016 116.447 100.137 116.842 100.351 117.188L102.763 121.207C102.92 121.475 103.128 121.709 103.375 121.896C103.623 122.083 103.905 122.219 104.206 122.297C104.506 122.374 104.819 122.39 105.126 122.346C105.433 122.301 105.729 122.196 105.995 122.036C106.261 121.876 106.493 121.665 106.676 121.415C106.86 121.165 106.993 120.881 107.066 120.58C107.139 120.278 107.152 119.965 107.103 119.659C107.055 119.352 106.946 119.058 106.783 118.794L104.366 114.775C104.148 114.401 103.832 114.095 103.451 113.89C103.071 113.684 102.641 113.588 102.209 113.612ZM91.5939 119.009C91.2276 119.014 90.8674 119.105 90.5424 119.274C90.2174 119.443 89.9366 119.686 89.7225 119.984C89.5084 120.281 89.367 120.624 89.3096 120.986C89.2522 121.348 89.2805 121.718 89.3921 122.067L90.7608 126.553C90.8466 126.853 90.9912 127.132 91.1862 127.375C91.3811 127.618 91.6225 127.819 91.8962 127.968C92.1699 128.116 92.4704 128.209 92.7803 128.24C93.0901 128.271 93.403 128.24 93.7008 128.148C93.9985 128.057 94.275 127.908 94.5143 127.708C94.7535 127.509 94.9507 127.264 95.0942 126.988C95.2377 126.711 95.3247 126.409 95.3501 126.099C95.3756 125.788 95.3389 125.476 95.2423 125.18L93.8736 120.699C93.7305 120.207 93.4301 119.775 93.0184 119.47C92.6067 119.165 92.1063 119.003 91.5939 119.009ZM79.9942 121.651C79.9148 121.648 79.8354 121.65 79.7562 121.655C79.1366 121.698 78.5591 121.984 78.1506 122.452C77.742 122.92 77.5358 123.53 77.5772 124.15L77.8198 128.833C77.836 129.141 77.9125 129.442 78.0452 129.72C78.1778 129.998 78.3639 130.247 78.5928 130.453C78.8217 130.659 79.089 130.818 79.3793 130.921C79.6696 131.023 79.9774 131.068 80.2849 131.052C80.5925 131.035 80.8938 130.959 81.1717 130.826C81.4496 130.693 81.6987 130.507 81.9046 130.278C82.1106 130.049 82.2694 129.782 82.372 129.491C82.4747 129.201 82.5191 128.893 82.5027 128.586L82.2556 123.907C82.2339 123.315 81.9885 122.753 81.5689 122.334C81.1493 121.915 80.5866 121.671 79.9942 121.651Z" fill="black"/>
</svg>
