<svg width="150" height="150" viewBox="0 0 150 150" fill="none" xmlns="http://www.w3.org/2000/svg">
<path d="M94.4824 15.4512L17.7832 21.0059C17.7597 21.0076 17.7363 21.0095 17.7129 21.0117C17.6737 21.0168 17.6346 21.0227 17.5957 21.0293C17.523 21.0384 17.4507 21.0501 17.3789 21.0645C17.3495 21.0718 17.3202 21.0797 17.291 21.0879C17.2577 21.0952 17.2245 21.103 17.1914 21.1113C17.1183 21.132 17.046 21.1555 16.9746 21.1817C16.9272 21.2 16.8804 21.2195 16.834 21.2403C16.8065 21.2516 16.7791 21.2633 16.752 21.2754C16.5944 21.3481 16.4434 21.4344 16.3008 21.5332C16.2752 21.5485 16.2498 21.5641 16.2246 21.5801C16.1622 21.6265 16.1016 21.6754 16.043 21.7266C16.0312 21.7382 16.0194 21.7499 16.0078 21.7617C15.9575 21.805 15.9087 21.85 15.8613 21.8965C15.8313 21.9291 15.802 21.9623 15.7734 21.9961C15.7288 22.0454 15.6858 22.0963 15.6445 22.1485C15.6287 22.1678 15.613 22.1873 15.5977 22.207C15.5523 22.2679 15.5093 22.3304 15.4688 22.3945C15.4568 22.4139 15.4451 22.4335 15.4336 22.4531C15.3941 22.5162 15.357 22.5807 15.3223 22.6465C15.3082 22.6736 15.2945 22.701 15.2812 22.7285C15.2491 22.7996 15.2198 22.8719 15.1934 22.9453C15.1894 22.9531 15.1855 22.9609 15.1816 22.9688C15.1212 23.1382 15.0761 23.3127 15.0469 23.4903C15.0405 23.5214 15.0347 23.5527 15.0293 23.584C15.0183 23.6637 15.0104 23.7439 15.0059 23.8242V23.836C15.0024 23.8906 15.0005 23.9453 15 24V101.215C15 104.292 15.9455 107.301 17.7129 109.822C17.7591 109.889 17.808 109.953 17.8594 110.016L36.3809 132.305C36.5596 132.626 36.7959 132.912 37.0781 133.148L38.25 134.555C38.3988 134.734 38.5679 134.895 38.7539 135.035C40.5152 136.744 42.9515 137.753 45.5801 137.584L126.58 132.357C131.287 132.053 135 128.091 135 123.375V45.3985C135 42.6281 133.697 40.172 131.713 38.5196C131.572 38.3588 131.415 38.2134 131.244 38.086L129.791 37.0137C129.609 36.8406 129.407 36.691 129.188 36.5684L104.473 18.3399C101.595 16.2165 98.0481 15.1925 94.4824 15.4512ZM94.916 21.4336C97.0563 21.2783 99.1856 21.8954 100.91 23.168L119.303 36.7383L44.2266 41.6543C41.6417 41.823 39.1131 40.8666 37.2773 39.0352H37.2715L24.7617 26.5195L94.916 21.4336ZM21 31.2422L33.0352 43.2774L36 46.2422V122.455L22.6172 106.348C21.5698 104.842 21 103.054 21 101.215V31.2422ZM125.807 42.4043C127.58 42.2905 129 43.6235 129 45.3985V123.375C129 124.983 127.798 126.265 126.193 126.369L45.1934 131.596C44.3126 131.652 43.5191 131.35 42.9434 130.816L42.9375 130.811L42.9316 130.805C42.9194 130.793 42.9144 130.775 42.9023 130.764C42.8908 130.748 42.8791 130.732 42.8672 130.717C42.3367 130.18 42 129.448 42 128.602V50.625C42 49.0126 43.2 47.7347 44.8066 47.6309L125.807 42.4043ZM115.488 57L100.266 57.8438C97.9436 58.0838 95.2383 59.814 95.2383 62.625L101.988 63.1875V95.2617L78.6445 59.2559L61.1484 60.2403C57.8754 60.4803 56.9824 62.9129 56.9824 66.0059H63.7324V112.699C63.7324 112.699 60.5755 113.551 59.5195 113.824C57.2755 114.403 56.9824 116.355 56.9824 117.762C56.9824 117.762 68.24 117.197 73.418 116.807C79.295 116.357 79.4883 112.418 79.4883 112.418L72.7383 111.012V76.4121C72.7383 76.4121 89.8975 103.981 95.1445 112.084C97.6135 115.891 99.4571 116.637 102.703 116.637C105.367 116.637 107.886 115.85 110.982 114.176V62.0918C110.982 62.0918 111.553 62.0614 113.35 61.4824C115.399 60.8194 115.488 58.968 115.488 57Z" fill="black"/>
</svg>
